<mxfile host="app.diagrams.net" modified="2021-09-18T16:28:20.511Z" agent="5.0 (Windows NT 10.0; Win64; x64) AppleWebKit/537.36 (KHTML, like Gecko) Chrome/93.0.4577.63 Safari/537.36 Edg/93.0.961.47" etag="nnLJu0mJu-MDJUxWt-6f" version="15.2.9" type="github">
  <diagram id="kgpKYQtTHZ0yAKxKKP6v" name="Page-1">
    <mxGraphModel dx="1422" dy="794" grid="1" gridSize="10" guides="1" tooltips="1" connect="1" arrows="1" fold="1" page="1" pageScale="1" pageWidth="850" pageHeight="1100" math="0" shadow="0">
      <root>
        <mxCell id="0" />
        <mxCell id="1" parent="0" />
        <mxCell id="fjsAMJ4S6LChil6NNE_H-3" value="" style="edgeStyle=orthogonalEdgeStyle;rounded=0;orthogonalLoop=1;jettySize=auto;html=1;" edge="1" parent="1" source="fjsAMJ4S6LChil6NNE_H-1" target="fjsAMJ4S6LChil6NNE_H-2">
          <mxGeometry relative="1" as="geometry" />
        </mxCell>
        <mxCell id="fjsAMJ4S6LChil6NNE_H-7" value="" style="edgeStyle=orthogonalEdgeStyle;rounded=0;orthogonalLoop=1;jettySize=auto;html=1;" edge="1" parent="1" source="fjsAMJ4S6LChil6NNE_H-1" target="fjsAMJ4S6LChil6NNE_H-6">
          <mxGeometry relative="1" as="geometry" />
        </mxCell>
        <mxCell id="fjsAMJ4S6LChil6NNE_H-1" value="Movimiento" style="html=1;" vertex="1" parent="1">
          <mxGeometry x="270" y="335" width="110" height="50" as="geometry" />
        </mxCell>
        <mxCell id="fjsAMJ4S6LChil6NNE_H-5" value="" style="edgeStyle=orthogonalEdgeStyle;rounded=0;orthogonalLoop=1;jettySize=auto;html=1;" edge="1" parent="1" source="fjsAMJ4S6LChil6NNE_H-2" target="fjsAMJ4S6LChil6NNE_H-4">
          <mxGeometry relative="1" as="geometry" />
        </mxCell>
        <mxCell id="fjsAMJ4S6LChil6NNE_H-2" value="Accionar Encendido" style="whiteSpace=wrap;html=1;" vertex="1" parent="1">
          <mxGeometry x="455" y="330" width="120" height="60" as="geometry" />
        </mxCell>
        <mxCell id="fjsAMJ4S6LChil6NNE_H-4" value="Luz Encendida" style="shape=singleArrow;whiteSpace=wrap;html=1;arrowWidth=0.4;arrowSize=0.4;" vertex="1" parent="1">
          <mxGeometry x="675" y="330" width="80" height="60" as="geometry" />
        </mxCell>
        <mxCell id="fjsAMJ4S6LChil6NNE_H-6" value="Luz Encendida" style="shape=singleArrow;whiteSpace=wrap;html=1;arrowWidth=0.4;arrowSize=0.4;" vertex="1" parent="1">
          <mxGeometry x="95" y="330" width="80" height="60" as="geometry" />
        </mxCell>
      </root>
    </mxGraphModel>
  </diagram>
</mxfile>
